<svg xmlns="http://www.w3.org/2000/svg" viewBox="0 0 200 200" width="200" height="200" shape-rendering="crispEdges">
  <rect x="40" y="30" width="16" height="8" fill="#3a3a3a"/>
  <rect x="56" y="30" width="16" height="8" fill="#3a3a3a"/>
  <rect x="72" y="22" width="8" height="8" fill="#3a3a3a"/>
  <rect x="80" y="22" width="8" height="8" fill="#3a3a3a"/>
  <rect x="88" y="30" width="8" height="8" fill="#3a3a3a"/>
  <rect x="32" y="38" width="8" height="8" fill="#3a3a3a"/>
  <rect x="40" y="38" width="16" height="8" fill="#3a3a3a"/>
  <rect x="56" y="38" width="16" height="8" fill="#3a3a3a"/>
  <rect x="72" y="38" width="8" height="8" fill="#3a3a3a"/>
  <rect x="80" y="38" width="8" height="8" fill="#3a3a3a"/>
  <rect x="88" y="38" width="8" height="8" fill="#3a3a3a"/>
  <rect x="24" y="46" width="8" height="8" fill="#3a3a3a"/>
  <rect x="32" y="46" width="8" height="8" fill="#3a3a3a"/>
  <rect x="40" y="46" width="8" height="8" fill="#3a3a3a"/>
  <rect x="48" y="46" width="8" height="8" fill="#3a3a3a"/>
  <rect x="56" y="46" width="8" height="8" fill="#3a3a3a"/>
  <rect x="64" y="46" width="8" height="8" fill="#3a3a3a"/>
  <rect x="72" y="46" width="8" height="8" fill="#3a3a3a"/>
  <rect x="80" y="46" width="8" height="8" fill="#3a3a3a"/>
  <rect x="88" y="46" width="8" height="8" fill="#3a3a3a"/>
  <rect x="96" y="46" width="8" height="8" fill="#3a3a3a"/>
  <rect x="32" y="54" width="8" height="8" fill="#3a3a3a"/>
  <rect x="40" y="54" width="8" height="8" fill="#3a3a3a"/>
  <rect x="48" y="54" width="8" height="8" fill="#3a3a3a"/>
  <rect x="56" y="54" width="8" height="8" fill="#3a3a3a"/>
  <rect x="64" y="54" width="8" height="8" fill="#3a3a3a"/>
  <rect x="72" y="54" width="8" height="8" fill="#3a3a3a"/>
  <rect x="80" y="54" width="8" height="8" fill="#3a3a3a"/>
  <rect x="88" y="54" width="8" height="8" fill="#3a3a3a"/>
  <rect x="96" y="54" width="8" height="8" fill="#3a3a3a"/>
  <rect x="32" y="62" width="8" height="8" fill="#3a3a3a"/>
  <rect x="40" y="62" width="8" height="8" fill="#3a3a3a"/>
  <rect x="48" y="62" width="8" height="8" fill="#3a3a3a"/>
  <rect x="56" y="62" width="8" height="8" fill="#3a3a3a"/>
  <rect x="64" y="62" width="8" height="8" fill="#3a3a3a"/>
  <rect x="72" y="62" width="8" height="8" fill="#3a3a3a"/>
  <rect x="80" y="62" width="8" height="8" fill="#3a3a3a"/>
  <rect x="88" y="62" width="8" height="8" fill="#3a3a3a"/>
  <rect x="96" y="62" width="8" height="8" fill="#3a3a3a"/>
  <rect x="104" y="62" width="8" height="8" fill="#3a3a3a"/>
  <rect x="40" y="70" width="8" height="8" fill="#3a3a3a"/>
  <rect x="48" y="70" width="8" height="8" fill="#3a3a3a"/>
  <rect x="56" y="70" width="8" height="8" fill="#3a3a3a"/>
  <rect x="64" y="70" width="8" height="8" fill="#3a3a3a"/>
  <rect x="72" y="70" width="8" height="8" fill="#3a3a3a"/>
  <rect x="80" y="70" width="8" height="8" fill="#3a3a3a"/>
  <rect x="88" y="70" width="8" height="8" fill="#3a3a3a"/>
  <rect x="96" y="70" width="8" height="8" fill="#3a3a3a"/>
  <rect x="104" y="70" width="8" height="8" fill="#3a3a3a"/>
  <rect x="48" y="78" width="8" height="8" fill="#3a3a3a"/>
  <rect x="56" y="78" width="8" height="8" fill="#3a3a3a"/>
  <rect x="64" y="78" width="8" height="8" fill="#3a3a3a"/>
  <rect x="72" y="78" width="8" height="8" fill="#3a3a3a"/>
  <rect x="80" y="78" width="8" height="8" fill="#3a3a3a"/>
  <rect x="88" y="78" width="8" height="8" fill="#3a3a3a"/>
  <rect x="96" y="78" width="8" height="8" fill="#3a3a3a"/>
  <rect x="56" y="86" width="8" height="8" fill="#3a3a3a"/>
  <rect x="64" y="86" width="8" height="8" fill="#3a3a3a"/>
  <rect x="72" y="86" width="8" height="8" fill="#3a3a3a"/>
  <rect x="80" y="86" width="8" height="8" fill="#3a3a3a"/>
  <rect x="88" y="86" width="8" height="8" fill="#3a3a3a"/>
  <rect x="64" y="94" width="8" height="8" fill="#3a3a3a"/>
  <rect x="72" y="94" width="8" height="8" fill="#3a3a3a"/>
  <rect x="80" y="94" width="8" height="8" fill="#3a3a3a"/>
  <rect x="72" y="102" width="8" height="8" fill="#3a3a3a"/>
  <rect x="80" y="102" width="8" height="8" fill="#3a3a3a"/>
  <rect x="40" y="174" width="24" height="8" fill="#3a3a3a"/>
  <rect x="64" y="174" width="8" height="8" fill="#3a3a3a"/>
  <rect x="96" y="174" width="24" height="8" fill="#3a3a3a"/>
  <rect x="72" y="174" width="24" height="8" fill="#3a3a3a"/>
  <rect x="80" y="38" width="8" height="8" fill="#ffffff"/>
  <rect x="120" y="14" width="8" height="8" fill="#999" opacity="0.6"/>
  <rect x="128" y="6" width="8" height="8" fill="#999" opacity="0.4"/>
  <rect x="136" y="0" width="8" height="6" fill="#999" opacity="0.2"/>
</svg>